<svg xmlns="http://www.w3.org/2000/svg" xmlns:xlink="http://www.w3.org/1999/xlink" width="877" zoomAndPan="magnify" viewBox="0 0 657.75 239.999995" height="320" preserveAspectRatio="xMidYMid meet" version="1.0"><defs><g/><clipPath id="faafa53dd4"><path d="M 376.566406 107 L 458.410156 107 L 458.410156 202 L 376.566406 202 Z M 376.566406 107 " clip-rule="nonzero"/></clipPath></defs><g fill="#ffffff" fill-opacity="1"><g transform="translate(249.402232, 152.476016)"><g><path d="M 22.25 0.71875 C 16.582031 0.71875 12.164062 -1.023438 9 -4.515625 C 5.84375 -8.003906 4.265625 -12.882812 4.265625 -19.15625 C 4.265625 -25.375 5.789062 -30.347656 8.84375 -34.078125 C 11.90625 -37.816406 16.023438 -39.6875 21.203125 -39.6875 C 25.785156 -39.6875 29.398438 -38.085938 32.046875 -34.890625 C 34.703125 -31.691406 36.03125 -27.34375 36.03125 -21.84375 L 36.03125 -18.984375 L 7.984375 -18.984375 C 8.035156 -13.628906 9.285156 -9.539062 11.734375 -6.71875 C 14.179688 -3.90625 17.6875 -2.5 22.25 -2.5 C 24.46875 -2.5 26.414062 -2.65625 28.09375 -2.96875 C 29.78125 -3.28125 31.914062 -3.953125 34.5 -4.984375 L 34.5 -1.75 C 32.300781 -0.800781 30.269531 -0.15625 28.40625 0.1875 C 26.539062 0.539062 24.488281 0.71875 22.25 0.71875 Z M 21.203125 -36.53125 C 17.453125 -36.53125 14.441406 -35.296875 12.171875 -32.828125 C 9.910156 -30.359375 8.585938 -26.796875 8.203125 -22.140625 L 32.28125 -22.140625 C 32.28125 -26.648438 31.300781 -30.175781 29.34375 -32.71875 C 27.382812 -35.257812 24.671875 -36.53125 21.203125 -36.53125 Z M 21.203125 -36.53125 "/></g></g></g><g fill="#ffffff" fill-opacity="1"><g transform="translate(289.66066, 152.476016)"><g><path d="M 20.78125 -39.6875 C 23.59375 -39.6875 26.023438 -39.171875 28.078125 -38.140625 C 30.128906 -37.117188 31.96875 -35.363281 33.59375 -32.875 L 33.8125 -32.875 C 33.664062 -35.882812 33.59375 -38.835938 33.59375 -41.734375 L 33.59375 -55.734375 L 37.109375 -55.734375 L 37.109375 0 L 34.78125 0 L 33.890625 -5.953125 L 33.59375 -5.953125 C 30.632812 -1.503906 26.382812 0.71875 20.84375 0.71875 C 15.46875 0.71875 11.359375 -0.953125 8.515625 -4.296875 C 5.679688 -7.640625 4.265625 -12.507812 4.265625 -18.90625 C 4.265625 -25.644531 5.671875 -30.789062 8.484375 -34.34375 C 11.304688 -37.90625 15.40625 -39.6875 20.78125 -39.6875 Z M 20.78125 -36.46875 C 16.53125 -36.46875 13.332031 -34.972656 11.1875 -31.984375 C 9.050781 -29.003906 7.984375 -24.671875 7.984375 -18.984375 C 7.984375 -7.953125 12.269531 -2.4375 20.84375 -2.4375 C 25.238281 -2.4375 28.460938 -3.710938 30.515625 -6.265625 C 32.566406 -8.816406 33.59375 -13.03125 33.59375 -18.90625 L 33.59375 -19.515625 C 33.59375 -25.535156 32.582031 -29.863281 30.5625 -32.5 C 28.550781 -35.144531 25.289062 -36.46875 20.78125 -36.46875 Z M 20.78125 -36.46875 "/></g></g></g><g fill="#ffffff" fill-opacity="1"><g transform="translate(333.321713, 152.476016)"><g><path d="M 36.03125 0 L 7.421875 0 L 7.421875 -52.375 L 36.03125 -52.375 L 36.03125 -49 L 11.0625 -49 L 11.0625 -29.1875 L 34.640625 -29.1875 L 34.640625 -25.828125 L 11.0625 -25.828125 L 11.0625 -3.359375 L 36.03125 -3.359375 Z M 36.03125 0 "/></g></g></g><g fill="#ffffff" fill-opacity="1"><g transform="translate(373.795044, 152.476016)"><g><path d="M 30.734375 0 L 2.9375 0 L 2.9375 -2.25 L 26.046875 -35.78125 L 4.625 -35.78125 L 4.625 -38.9375 L 30.65625 -38.9375 L 30.65625 -36.6875 L 7.421875 -3.15625 L 30.734375 -3.15625 Z M 30.734375 0 "/></g></g></g><g clip-path="url(#faafa53dd4)"><path fill="#ffffff" d="M 394.269531 168.847656 C 396.902344 169.15625 399.109375 170.183594 401.050781 171.8125 C 403.660156 174.019531 404.996094 176.921875 405.578125 180.199219 C 405.933594 182.207031 406.046875 184.28125 406.335938 186.3125 C 407.40625 193.738281 413.382812 199.851562 420.769531 201.054688 C 430.226562 202.59375 438.992188 196.484375 441 186.914062 C 441.800781 183.03125 441.757812 179.105469 441.355469 175.226562 C 441 171.925781 440.464844 168.667969 440.019531 165.367188 C 439.660156 162.777344 440.261719 160.390625 441.734375 158.25 C 444.167969 154.703125 446.621094 151.15625 449.050781 147.609375 C 449.207031 147.367188 449.410156 146.964844 449.320312 146.761719 C 449.03125 146.09375 449.386719 145.757812 449.789062 145.359375 C 454.359375 140.605469 457.347656 135.03125 457.816406 128.40625 C 458.085938 124.414062 458.398438 120.351562 457.460938 116.40625 C 456.210938 111.097656 452.308594 108.0625 446.867188 107.996094 C 445.839844 107.972656 444.835938 108.039062 443.875 107.414062 C 443.097656 106.925781 442.113281 106.96875 441.222656 107.304688 C 440.285156 107.636719 439.707031 108.351562 439.726562 109.222656 C 439.726562 110.046875 440.261719 110.738281 441.175781 111.097656 C 442.136719 111.453125 443.164062 111.496094 443.988281 110.960938 C 445.148438 110.203125 446.351562 110.425781 447.578125 110.449219 C 447.980469 110.449219 448.359375 110.5625 448.761719 110.628906 C 452.867188 111.410156 455.207031 113.816406 455.632812 118.167969 C 455.945312 122.003906 455.945312 125.90625 455.429688 129.765625 C 455.007812 132.910156 453.714844 135.699219 451.972656 138.308594 C 450.65625 140.292969 449.207031 142.167969 447.800781 144.085938 C 447.667969 144.265625 447.378906 144.53125 447.246094 144.488281 C 446.574219 144.289062 446.375 144.777344 446.105469 145.179688 C 444.101562 148.214844 442.09375 151.246094 440.0625 154.257812 C 438.457031 156.644531 435.78125 156.621094 434.152344 154.234375 C 434.105469 154.144531 434.039062 154.078125 433.996094 153.988281 C 432.011719 151.023438 430.046875 148.058594 428.0625 145.089844 C 427.816406 144.710938 427.636719 144.308594 427.035156 144.488281 C 426.902344 144.53125 426.632812 144.332031 426.5 144.175781 C 424.203125 141.320312 422.015625 138.375 420.410156 135.050781 C 419.273438 132.734375 418.648438 130.257812 418.582031 127.691406 C 418.492188 124.726562 418.449219 121.757812 418.582031 118.792969 C 418.695312 115.890625 419.695312 113.347656 422.308594 111.742188 C 423.777344 110.828125 425.429688 110.492188 427.125 110.40625 C 428.21875 110.335938 429.289062 110.335938 430.335938 110.984375 C 431.164062 111.496094 432.1875 111.429688 433.148438 111.074219 C 434.015625 110.71875 434.574219 110.027344 434.554688 109.246094 C 434.53125 108.308594 433.996094 107.726562 433.191406 107.394531 C 432.121094 106.945312 431.027344 107.015625 430.046875 107.59375 C 429.46875 107.929688 428.933594 108.039062 428.308594 108.019531 C 426.433594 107.972656 424.605469 108.175781 422.863281 108.933594 C 419.25 110.472656 417.421875 113.394531 416.6875 117.097656 C 416.460938 118.1875 416.375 119.304688 416.375 120.417969 C 416.351562 123.097656 416.308594 125.773438 416.484375 128.425781 C 416.863281 133.847656 419.027344 138.621094 422.328125 142.882812 C 423.066406 143.839844 423.914062 144.710938 424.738281 145.601562 C 425.007812 145.894531 425.160156 146.136719 425.027344 146.585938 C 424.9375 146.851562 425.027344 147.277344 425.207031 147.523438 C 427.460938 150.867188 429.757812 154.167969 432.03125 157.515625 C 433.035156 159.007812 434.085938 160.480469 434.910156 162.066406 C 435.847656 163.828125 435.890625 165.835938 436.179688 167.753906 C 436.960938 172.972656 437.609375 178.191406 437.453125 183.5 C 437.25 189.589844 433.058594 194.964844 427.324219 196.4375 C 419.316406 198.46875 411.644531 193.226562 410.664062 185.015625 C 410.394531 182.71875 410.328125 180.355469 409.839844 178.101562 C 408.253906 170.742188 402.253906 165.230469 394.78125 164.40625 C 393.132812 164.230469 391.972656 163.605469 390.675781 162.6875 C 387.644531 160.527344 384.296875 160.4375 381.109375 162.378906 C 377.964844 164.273438 376.578125 167.21875 377.070312 170.832031 C 377.582031 174.46875 379.746094 176.921875 383.292969 177.925781 C 388.914062 179.53125 394.269531 175.449219 394.3125 169.605469 C 394.269531 169.359375 394.269531 169.179688 394.269531 168.847656 Z M 385.457031 165.523438 C 387.753906 165.5 389.5625 167.285156 389.585938 169.582031 C 389.605469 171.855469 387.777344 173.730469 385.523438 173.730469 C 383.273438 173.753906 381.441406 171.925781 381.375 169.625 C 381.308594 167.417969 383.160156 165.542969 385.457031 165.523438 Z M 385.457031 165.523438 " fill-opacity="1" fill-rule="nonzero"/></g><g fill="#00a99d" fill-opacity="1"><g transform="translate(130.852682, 156.818313)"><g><path d="M 7.507812 0 L 29.425781 0 L 29.425781 -47.292969 C 31.230469 -49.847656 35.433594 -54.199219 36.632812 -55.25 C 42.1875 -60.054688 47.746094 -59.15625 47.746094 -50.898438 L 47.746094 0 L 69.664062 0 L 69.664062 -49.546875 C 71.617188 -51.949219 74.167969 -54.5 75.070312 -55.25 C 80.625 -60.054688 86.179688 -59.15625 86.179688 -50.898438 L 86.179688 0 L 108.101562 0 L 108.101562 -50.445312 C 108.101562 -57.203125 101.195312 -63.660156 90.835938 -63.660156 C 81.824219 -63.660156 74.320312 -57.351562 69.515625 -51.796875 C 68.613281 -58.105469 62.007812 -63.660156 52.398438 -63.660156 C 42.339844 -63.660156 33.929688 -55.703125 29.425781 -49.847656 L 29.425781 -61.257812 L 7.507812 -61.257812 Z M 7.507812 0 "/></g></g></g></svg>